<svg xmlns="http://www.w3.org/2000/svg" viewBox="0 0 240 240" width="240" height="240">
  <rect width="240" height="240" fill="#ffffff"/>
  <g fill="#0f172a">
    <!-- Position markers (3 corners) -->
    <rect x="10" y="10" width="50" height="50"/>
    <rect x="20" y="20" width="30" height="30" fill="#ffffff"/>
    <rect x="25" y="25" width="20" height="20" fill="#0f172a"/>

    <rect x="180" y="10" width="50" height="50"/>
    <rect x="190" y="20" width="30" height="30" fill="#ffffff"/>
    <rect x="195" y="25" width="20" height="20" fill="#0f172a"/>

    <rect x="10" y="180" width="50" height="50"/>
    <rect x="20" y="190" width="30" height="30" fill="#ffffff"/>
    <rect x="25" y="195" width="20" height="20" fill="#0f172a"/>

    <!-- Random data modules -->
    <rect x="70" y="10" width="10" height="10"/>
    <rect x="90" y="10" width="10" height="10"/>
    <rect x="120" y="10" width="10" height="10"/>
    <rect x="140" y="10" width="10" height="10"/>
    <rect x="160" y="10" width="10" height="10"/>

    <rect x="70" y="30" width="10" height="10"/>
    <rect x="100" y="30" width="10" height="10"/>
    <rect x="130" y="30" width="10" height="10"/>
    <rect x="160" y="30" width="10" height="10"/>

    <rect x="80" y="50" width="10" height="10"/>
    <rect x="100" y="50" width="10" height="10"/>
    <rect x="120" y="50" width="10" height="10"/>
    <rect x="140" y="50" width="10" height="10"/>

    <rect x="70" y="80" width="10" height="10"/>
    <rect x="90" y="80" width="10" height="10"/>
    <rect x="110" y="80" width="10" height="10"/>
    <rect x="130" y="80" width="10" height="10"/>
    <rect x="150" y="80" width="10" height="10"/>
    <rect x="170" y="80" width="10" height="10"/>
    <rect x="200" y="80" width="10" height="10"/>
    <rect x="220" y="80" width="10" height="10"/>

    <rect x="10" y="100" width="10" height="10"/>
    <rect x="40" y="100" width="10" height="10"/>
    <rect x="60" y="100" width="10" height="10"/>
    <rect x="80" y="100" width="10" height="10"/>
    <rect x="110" y="100" width="10" height="10"/>
    <rect x="140" y="100" width="10" height="10"/>
    <rect x="170" y="100" width="10" height="10"/>
    <rect x="200" y="100" width="10" height="10"/>

    <rect x="20" y="120" width="10" height="10"/>
    <rect x="50" y="120" width="10" height="10"/>
    <rect x="80" y="120" width="10" height="10"/>
    <rect x="100" y="120" width="10" height="10"/>
    <rect x="130" y="120" width="10" height="10"/>
    <rect x="160" y="120" width="10" height="10"/>
    <rect x="180" y="120" width="10" height="10"/>
    <rect x="210" y="120" width="10" height="10"/>

    <rect x="30" y="140" width="10" height="10"/>
    <rect x="60" y="140" width="10" height="10"/>
    <rect x="90" y="140" width="10" height="10"/>
    <rect x="120" y="140" width="10" height="10"/>
    <rect x="150" y="140" width="10" height="10"/>
    <rect x="180" y="140" width="10" height="10"/>
    <rect x="200" y="140" width="10" height="10"/>
    <rect x="220" y="140" width="10" height="10"/>

    <rect x="10" y="160" width="10" height="10"/>
    <rect x="40" y="160" width="10" height="10"/>
    <rect x="70" y="160" width="10" height="10"/>
    <rect x="100" y="160" width="10" height="10"/>
    <rect x="130" y="160" width="10" height="10"/>
    <rect x="170" y="160" width="10" height="10"/>
    <rect x="190" y="160" width="10" height="10"/>
    <rect x="220" y="160" width="10" height="10"/>

    <rect x="80" y="180" width="10" height="10"/>
    <rect x="100" y="180" width="10" height="10"/>
    <rect x="130" y="180" width="10" height="10"/>
    <rect x="160" y="180" width="10" height="10"/>
    <rect x="180" y="180" width="10" height="10"/>

    <rect x="70" y="200" width="10" height="10"/>
    <rect x="90" y="200" width="10" height="10"/>
    <rect x="120" y="200" width="10" height="10"/>
    <rect x="150" y="200" width="10" height="10"/>
    <rect x="170" y="200" width="10" height="10"/>
    <rect x="200" y="200" width="10" height="10"/>
    <rect x="220" y="200" width="10" height="10"/>

    <rect x="80" y="220" width="10" height="10"/>
    <rect x="110" y="220" width="10" height="10"/>
    <rect x="130" y="220" width="10" height="10"/>
    <rect x="160" y="220" width="10" height="10"/>
    <rect x="190" y="220" width="10" height="10"/>
  </g>
  <!-- Center logo -->
  <circle cx="120" cy="120" r="22" fill="#ffffff" stroke="#0f172a" stroke-width="2"/>
  <text x="120" y="128" text-anchor="middle" font-family="Arial, sans-serif" font-size="16" font-weight="700" fill="#4f46e5">VQR</text>
</svg>
